<svg width="60" height="60" viewBox="0 0 60 60" fill="none" xmlns="http://www.w3.org/2000/svg">
<path d="M49.8267 44.445C49.8317 44.9167 49.71 45.5334 49.5833 46.0417C48.6983 49.6167 44.7683 53.6284 39.2367 53.2634C34.2233 52.9334 30.14 50.5267 30.14 47.1517C30.14 43.7767 34.2133 41.04 39.2367 41.04C44.26 41.04 49.795 41.07 49.8267 44.445Z" fill="#EA596E"/>
<path d="M39.2367 41.6067C36.5383 41.6067 30.38 42.3534 28.9667 42.3534C26.47 42.3534 24.445 43.92 24.445 45.8534C24.445 46.7834 24.9217 47.6234 25.685 48.25C25.685 48.25 27.3617 49.9317 30.3817 49.125C31.7033 48.7717 33.8533 46.1484 37.6383 45.7317C39.5233 45.5234 43.055 46.9817 49.2617 47.0167C49.5283 46.4434 49.5833 46.045 49.5833 46.045C49.5833 42.6667 44.26 41.6067 39.2367 41.6067Z" fill="#DD2E44"/>
<path d="M49.5834 46.0416C49.5834 46.0416 53.2234 45.3033 55.4867 42.3266C58.125 38.8549 57.7784 35.1399 57.7784 35.1399C60.4517 30.1399 56.945 25.4516 56.945 25.4516C56.5967 20.1733 53.3334 17.9866 53.3334 17.9866C51.215 12.9516 46.5284 11.5983 46.5284 11.5983C42.8484 7.29328 36.32 7.43162 36.32 7.43162C36.32 7.43162 30.2034 5.18995 21.8067 7.70995C20.4184 8.12662 15.765 9.09828 12.3617 11.1816C1.63503 17.7483 0.823362 27.9883 0.973362 29.6533C1.80503 38.9583 8.33336 40.625 12.5 41.5966C13.4717 44.235 17.0484 49.0966 23.4717 47.2916C31.3884 45.9033 34.7217 43.5416 36.6667 43.5416C38.6117 43.5416 44.0284 45.625 49.5834 46.0416Z" fill="#F4ABBA"/>
<path d="M29.5616 31.08C33.4416 28.9883 35.545 29.1833 37.4016 29.3517C37.9916 29.405 38.55 29.4467 39.115 29.4433C42.4216 29.3683 45.1 27.975 46.285 26.6267C46.4209 26.4591 46.4866 26.2455 46.4685 26.0305C46.4504 25.8156 46.3497 25.616 46.1877 25.4735C46.0257 25.3311 45.8148 25.2569 45.5993 25.2665C45.3838 25.2761 45.1804 25.3687 45.0316 25.525C44.1183 26.565 41.8666 27.7133 39.0766 27.7767C38.5766 27.7917 38.075 27.7417 37.555 27.6933C35.5633 27.5083 33.09 27.2817 28.77 29.6133C27.6616 30.2117 26.1416 30.4333 24.495 30.6C20.8333 25.315 23.0366 20.7117 23.6666 19.615C23.7283 19.6183 23.7883 19.6383 23.8516 19.6383C24.5183 19.6383 25.1883 19.475 25.795 19.1317C25.9798 19.0191 26.1136 18.8392 26.1681 18.6298C26.2226 18.4204 26.1935 18.198 26.087 18.0096C25.9805 17.8213 25.8049 17.6818 25.5974 17.6206C25.3898 17.5594 25.1666 17.5813 24.975 17.6817C24.4507 17.9703 23.8367 18.0505 23.2559 17.9062C22.675 17.7619 22.17 17.4038 21.8416 16.9033C21.7177 16.7286 21.5312 16.6082 21.3209 16.5674C21.1106 16.5265 20.8926 16.5682 20.7122 16.6838C20.5318 16.7994 20.4029 16.98 20.3522 17.1882C20.3015 17.3964 20.333 17.6161 20.44 17.8017C20.835 18.42 21.3916 18.885 22.02 19.1967C21.1516 20.96 19.5033 25.5967 22.64 30.7817C20.4333 30.9983 18.2233 31.31 16.4933 32.425C15.2778 33.2222 14.2172 34.2336 13.3633 35.41C12.315 35.23 8.47664 34.285 7.80664 30.025C8.22331 29.7017 8.55998 29.275 8.76831 28.7483C8.80858 28.6466 8.82841 28.5378 8.82667 28.4284C8.82493 28.319 8.80165 28.2109 8.75816 28.1105C8.71468 28.0101 8.65183 27.9192 8.57321 27.843C8.4946 27.7669 8.40175 27.7069 8.29998 27.6667C8.1982 27.6264 8.08949 27.6066 7.98005 27.6083C7.87061 27.61 7.76259 27.6333 7.66215 27.6768C7.56171 27.7203 7.47081 27.7831 7.39466 27.8618C7.31851 27.9404 7.25858 28.0332 7.21831 28.135C7.15548 28.3103 7.05526 28.4698 6.92459 28.6025C6.79393 28.7352 6.63596 28.8378 6.46164 28.9033C6.28506 28.9617 6.09802 28.9814 5.91315 28.9613C5.72827 28.9412 5.54987 28.8816 5.38998 28.7867C5.29433 28.7335 5.18915 28.6996 5.08043 28.6871C4.97171 28.6746 4.86159 28.6836 4.75635 28.7136C4.5438 28.7742 4.36406 28.9168 4.25664 29.11C4.14923 29.3032 4.12295 29.5311 4.18359 29.7436C4.24423 29.9562 4.38681 30.1359 4.57998 30.2433C5.05331 30.5067 5.55998 30.64 6.06331 30.64C6.12498 30.64 6.18331 30.6117 6.24498 30.6083C7.03831 34.63 10.2166 36.3967 12.465 36.9317C12.1709 37.5582 11.9844 38.2298 11.9133 38.9183C11.8939 39.1384 11.9627 39.3573 12.1046 39.5267C12.2465 39.6961 12.4499 39.8022 12.67 39.8217L12.745 39.825C12.9533 39.825 13.154 39.7469 13.3076 39.6063C13.4613 39.4656 13.5566 39.2725 13.575 39.065C13.755 37.0433 15.6833 34.9317 17.3966 33.8233C19.0033 32.7883 21.355 32.57 23.6316 32.3583C25.84 32.1567 27.9266 31.9633 29.5616 31.08ZM51.005 28.5733C50.8989 28.7674 50.8742 28.9956 50.9364 29.2078C50.9986 29.4201 51.1426 29.5989 51.3366 29.705C51.5307 29.8111 51.7589 29.8357 51.9712 29.7735C52.1834 29.7113 52.3622 29.5674 52.4683 29.3733C52.5 29.3167 55.5383 23.625 49.85 19.8C49.6665 19.6767 49.4416 19.6313 49.2247 19.6738C49.0078 19.7163 48.8166 19.8432 48.6933 20.0267C48.57 20.2101 48.5246 20.435 48.5671 20.6519C48.6096 20.8689 48.7365 21.06 48.92 21.1833C53.3266 24.1467 51.1016 28.3933 51.005 28.5733ZM16.46 15.1167C16.5922 15.1167 16.7225 15.0853 16.8401 15.025C16.9578 14.9647 17.0594 14.8773 17.1366 14.77C19.5533 11.4083 22.9 12.5583 23.0416 12.6117C23.2469 12.6794 23.4705 12.6647 23.6651 12.5708C23.8598 12.4768 24.0103 12.3109 24.0849 12.108C24.1596 11.9051 24.1524 11.6812 24.0651 11.4835C23.9777 11.2857 23.8169 11.1297 23.6166 11.0483C22.0166 10.455 18.3216 10.2683 15.7833 13.7983C15.6942 13.9228 15.6411 14.0695 15.6299 14.2221C15.6186 14.3748 15.6497 14.5277 15.7196 14.6639C15.7895 14.8001 15.8956 14.9144 16.0262 14.9942C16.1568 15.0741 16.3069 15.1165 16.46 15.1167ZM38.2466 11.97C41.955 11.6683 43.6416 14.3567 43.7183 14.4833C43.8304 14.6741 44.0136 14.8125 44.2277 14.8681C44.3337 14.8957 44.4441 14.902 44.5526 14.8869C44.6611 14.8718 44.7655 14.8355 44.86 14.78C44.9544 14.7245 45.037 14.651 45.103 14.5636C45.1691 14.4762 45.2172 14.3766 45.2448 14.2706C45.2723 14.1646 45.2787 14.0542 45.2636 13.9457C45.2485 13.8372 45.2121 13.7328 45.1566 13.6383C45.0666 13.4867 42.9233 9.94166 38.1166 10.3083C38.0075 10.3169 37.9012 10.3468 37.8036 10.3964C37.7061 10.4461 37.6193 10.5144 37.5482 10.5976C37.4046 10.7656 37.3336 10.9838 37.3508 11.2042C37.368 11.4245 37.4721 11.629 37.6401 11.7726C37.8081 11.9162 38.0263 11.9872 38.2466 11.97ZM53.4966 36.3217C53.0866 36.2983 52.635 36.6233 52.5983 37.0833C52.595 37.1133 52.33 39.9483 49.415 40.9067C49.2244 40.9665 49.0617 41.093 48.9567 41.263C48.8517 41.433 48.8114 41.6351 48.8432 41.8323C48.8749 42.0295 48.9766 42.2088 49.1297 42.3372C49.2827 42.4656 49.4769 42.5346 49.6766 42.5317C49.765 42.5316 49.8527 42.5176 49.9366 42.49C53.89 41.1933 54.2466 37.3833 54.26 37.2217C54.2691 37.1124 54.2566 37.0024 54.2231 36.898C54.1897 36.7936 54.136 36.6969 54.0651 36.6133C53.9942 36.5297 53.9074 36.4609 53.8099 36.4108C53.7124 36.3608 53.6059 36.3305 53.4966 36.3217Z" fill="#EA596E"/>
<path d="M12.245 28.2233C12.2122 28.3302 12.2013 28.4427 12.2129 28.5539C12.2244 28.6652 12.2583 28.7729 12.3124 28.8708C12.3665 28.9687 12.4398 29.0547 12.5278 29.1236C12.6159 29.1926 12.7169 29.2431 12.8249 29.2722C12.9329 29.3013 13.0456 29.3084 13.1564 29.293C13.2672 29.2776 13.3737 29.24 13.4697 29.1826C13.5657 29.1252 13.6491 29.049 13.715 28.9586C13.7809 28.8683 13.8279 28.7656 13.8533 28.6567C14.0138 28.0792 14.3869 27.5839 14.8977 27.2704C15.4085 26.9568 16.0191 26.8483 16.6066 26.9667C16.7138 26.9891 16.8243 26.9902 16.9318 26.9699C17.0394 26.9497 17.1419 26.9084 17.2335 26.8485C17.3252 26.7886 17.4041 26.7113 17.4658 26.6209C17.5275 26.5305 17.5709 26.4288 17.5933 26.3217C17.6157 26.2145 17.6168 26.104 17.5966 25.9964C17.5763 25.8889 17.535 25.7864 17.4751 25.6947C17.4153 25.6031 17.3379 25.5242 17.2475 25.4625C17.1571 25.4007 17.0554 25.3574 16.9483 25.335C16.2547 25.194 15.5359 25.2435 14.8683 25.4783C12.925 22.155 13.3033 18.8783 13.3083 18.8433C13.3377 18.6243 13.2788 18.4026 13.1448 18.2269C13.0107 18.0513 12.8123 17.9361 12.5933 17.9067C12.375 17.8786 12.1544 17.9375 11.9792 18.0706C11.8039 18.2038 11.6881 18.4005 11.6566 18.6183C11.635 18.78 11.19 22.4783 13.4283 26.3083C12.8587 26.8202 12.448 27.4849 12.245 28.2233ZM30.8766 24.1067C31.2095 23.8043 31.6444 23.6389 32.094 23.6435C32.5437 23.6481 32.975 23.8225 33.3016 24.1317C33.4603 24.2855 33.6736 24.37 33.8946 24.3665C34.1156 24.3631 34.3261 24.272 34.48 24.1133C34.634 23.9549 34.7188 23.7417 34.7157 23.5207C34.7125 23.2997 34.6218 23.089 34.4633 22.935C34.087 22.5766 33.6321 22.3113 33.135 22.16C33.6283 20.4667 33.4333 19.715 32.975 18.3067C32.8843 18.0311 32.7971 17.7544 32.7133 17.4767L32.6633 17.31C32.0566 15.2967 31.655 13.9683 32.8083 12.0933C32.9241 11.905 32.9604 11.6784 32.9091 11.4634C32.8579 11.2483 32.7233 11.0625 32.535 10.9467C32.3467 10.8308 32.1201 10.7946 31.905 10.8458C31.69 10.8971 31.5041 11.0317 31.3883 11.22C29.8416 13.7333 30.41 15.615 31.0683 17.7933L31.1183 17.96C31.2161 18.2822 31.3066 18.5694 31.39 18.8217C31.8016 20.09 31.9266 20.515 31.4233 22.0483C30.7932 22.1609 30.2088 22.4525 29.74 22.8883C29.5842 23.0404 29.4941 23.2475 29.489 23.4652C29.4839 23.6828 29.5643 23.8939 29.7128 24.0531C29.8613 24.2123 30.0663 24.307 30.2838 24.317C30.5013 24.3271 30.7141 24.2515 30.8766 24.1067ZM41.485 19.1317C41.9799 19.1331 42.469 19.0244 42.9166 18.8133C43.1166 18.7192 43.2711 18.5494 43.3459 18.3414C43.4208 18.1334 43.4099 17.9042 43.3158 17.7042C43.2216 17.5041 43.0519 17.3497 42.8439 17.2749C42.6359 17.2 42.4066 17.2108 42.2066 17.305C41.7971 17.493 41.3315 17.5189 40.9036 17.3776C40.4756 17.2363 40.1171 16.9382 39.9 16.5433C39.8504 16.4432 39.7813 16.354 39.6966 16.2812C39.6119 16.2083 39.5135 16.1532 39.4071 16.1191C39.3007 16.0851 39.1885 16.0728 39.0773 16.0829C38.966 16.0931 38.8579 16.1255 38.7595 16.1782C38.661 16.231 38.5741 16.303 38.5041 16.39C38.434 16.477 38.3821 16.5772 38.3515 16.6847C38.3209 16.7921 38.3123 16.9046 38.326 17.0155C38.3398 17.1263 38.3757 17.2333 38.4316 17.33C38.7316 17.89 39.1783 18.3317 39.6983 18.6383C38.8033 20.8133 39.3116 23.1233 39.7266 24.3483C39.7584 24.4558 39.8115 24.5558 39.8828 24.6423C39.954 24.7288 40.042 24.8 40.1415 24.8517C40.2409 24.9034 40.3498 24.9346 40.4616 24.9432C40.5733 24.9519 40.6857 24.9379 40.7919 24.9021C40.8981 24.8663 40.996 24.8095 41.0798 24.735C41.1635 24.6605 41.2314 24.5698 41.2793 24.4685C41.3272 24.3672 41.3541 24.2572 41.3585 24.1452C41.363 24.0332 41.3447 23.9214 41.305 23.8167C41.025 22.9867 40.4816 20.89 41.3016 19.1067C41.365 19.11 41.4233 19.1317 41.485 19.1317ZM49.48 34.8467C49.4736 34.7372 49.4456 34.6301 49.3976 34.5316C49.3495 34.433 49.2824 34.345 49.2001 34.2726C49.1177 34.2002 49.0219 34.1449 48.918 34.1098C48.8141 34.0747 48.7043 34.0606 48.595 34.0683C48.1953 34.0959 47.7942 34.0443 47.4146 33.9165C47.0349 33.7886 46.6843 33.5871 46.3828 33.3233C46.0812 33.0596 45.8348 32.7389 45.6576 32.3797C45.4803 32.0204 45.3758 31.6297 45.35 31.23C45.3308 31.011 45.2276 30.808 45.062 30.6635C44.8963 30.519 44.6812 30.4442 44.4616 30.455C44.3524 30.4624 44.2457 30.4913 44.1476 30.5399C44.0496 30.5886 43.962 30.6561 43.8901 30.7386C43.8181 30.8211 43.7631 30.9169 43.7282 31.0207C43.6933 31.1245 43.6792 31.2341 43.6866 31.3433C43.755 32.3267 44.13 33.2133 44.7 33.935C43.36 35.5117 41.605 35.96 40.6266 36.075C39.7616 36.1783 39.005 36.09 38.13 35.9867C37.3283 35.895 36.4216 35.79 35.3 35.8233L35.2916 35.825C35.2583 35.3483 35.145 34.6533 34.7833 34.075C34.659 33.9037 34.4742 33.7861 34.2665 33.7458C34.0587 33.7055 33.8434 33.7457 33.6641 33.8581C33.4848 33.9705 33.3548 34.1468 33.3005 34.3514C33.2462 34.5559 33.2717 34.7735 33.3716 34.96C33.595 35.3183 33.6366 35.89 33.6366 36.1683C32.7966 36.47 32.07 36.9133 31.4133 37.3417C30.24 38.105 29.315 38.7083 27.9233 38.395C26.6633 38.1067 25.4016 38.0483 24.3316 38.1983C24.165 37.78 23.9016 37.28 23.495 36.895C23.3343 36.7432 23.1199 36.6614 22.8989 36.6676C22.6779 36.6739 22.4685 36.7676 22.3166 36.9283C22.1648 37.089 22.083 37.3034 22.0893 37.5244C22.0955 37.7454 22.1893 37.9548 22.35 38.1067C22.4933 38.2417 22.6066 38.4383 22.6983 38.635C20.86 39.3917 19.9383 40.6567 19.895 40.7183C19.8066 40.8428 19.7541 40.9892 19.7434 41.1414C19.7326 41.2937 19.764 41.446 19.834 41.5816C19.9041 41.7173 20.0101 41.831 20.1405 41.9104C20.2709 41.9898 20.4206 42.0317 20.5733 42.0317C20.7051 42.0323 20.8351 42.0016 20.9527 41.9422C21.0704 41.8828 21.1722 41.7964 21.25 41.69C21.2583 41.6767 22.1733 40.4517 23.9783 39.9567C24.9116 39.7 26.25 39.7217 27.555 40.0183C27.92 40.1017 28.2583 40.13 28.5866 40.135C28.7416 40.4983 28.8016 40.93 28.81 41.09C28.8219 41.3025 28.9147 41.5024 29.0693 41.6487C29.224 41.795 29.4288 41.8766 29.6416 41.8767L29.6866 41.875C29.9065 41.8633 30.1129 41.7651 30.2606 41.6018C30.4083 41.4385 30.4854 41.2233 30.475 41.0033C30.4475 40.6151 30.3748 40.2314 30.2583 39.86C31.0266 39.5817 31.695 39.1467 32.3233 38.7383C33.2766 38.1167 34.1783 37.5283 35.3566 37.49C36.3433 37.455 37.1566 37.55 37.9416 37.6417C38.7316 37.7333 39.5083 37.7933 40.365 37.7433C40.5166 38.165 40.505 38.7283 40.4816 38.9167C40.4675 39.034 40.4784 39.153 40.5135 39.2659C40.5487 39.3787 40.6073 39.4829 40.6855 39.5715C40.7637 39.6601 40.8598 39.7311 40.9674 39.78C41.075 39.8289 41.1918 39.8544 41.31 39.855C41.512 39.8547 41.707 39.781 41.8588 39.6476C42.0106 39.5143 42.1087 39.3303 42.135 39.13C42.1954 38.5834 42.1622 38.0304 42.0366 37.495C43.5572 37.0915 44.9199 36.2368 45.945 35.0433C46.7709 35.5544 47.7357 35.795 48.705 35.7317C48.9249 35.7167 49.13 35.6151 49.2753 35.4493C49.4205 35.2834 49.4941 35.0667 49.48 34.8467Z" fill="#EA596E"/>
</svg>
