<svg width="60" height="60" viewBox="0 0 60 60" fill="none" xmlns="http://www.w3.org/2000/svg">
<path d="M55.3846 0H4.61538C3.39131 0 2.21737 0.574673 1.35181 1.5976C0.486262 2.62052 0 4.00791 0 5.45455V54.5455C0 55.9921 0.486262 57.3795 1.35181 58.4024C2.21737 59.4253 3.39131 60 4.61538 60H55.3846C56.6087 60 57.7826 59.4253 58.6482 58.4024C59.5137 57.3795 60 55.9921 60 54.5455V5.45455C60 4.00791 59.5137 2.62052 58.6482 1.5976C57.7826 0.574673 56.6087 0 55.3846 0ZM19.8462 36C20.3358 36.434 20.6595 37.0801 20.746 37.7961C20.8326 38.5122 20.6749 39.2395 20.3077 39.8182C19.9405 40.3968 19.3938 40.7794 18.7879 40.8817C18.182 40.984 17.5666 40.7976 17.0769 40.3636L7.84615 32.1818C7.55955 31.9278 7.32692 31.5984 7.16671 31.2197C7.00649 30.841 6.92308 30.4234 6.92308 30C6.92308 29.5766 7.00649 29.159 7.16671 28.7803C7.32692 28.4016 7.55955 28.0722 7.84615 27.8182L17.0769 19.6364C17.5666 19.2024 18.182 19.016 18.7879 19.1183C19.3938 19.2206 19.9405 19.6032 20.3077 20.1818C20.6749 20.7605 20.8326 21.4878 20.746 22.2039C20.6595 22.9199 20.3358 23.566 19.8462 24L13.076 30L19.8462 36ZM36.8337 11.6591L27.6029 49.8409C27.5242 50.1914 27.3872 50.5198 27.1999 50.8069C27.0125 51.0941 26.7786 51.3342 26.5118 51.5132C26.245 51.6922 25.9507 51.8066 25.6461 51.8496C25.3414 51.8926 25.0326 51.8634 24.7376 51.7637C24.4426 51.6639 24.1675 51.4957 23.9282 51.2688C23.6889 51.0419 23.4903 50.7608 23.344 50.4421C23.1976 50.1234 23.1066 49.7735 23.0761 49.4127C23.0456 49.0519 23.0763 48.6875 23.1663 48.3409L32.3971 10.1591C32.5745 9.47637 32.9715 8.90314 33.5026 8.56256C34.0338 8.22199 34.6568 8.14124 35.2379 8.33768C35.8189 8.53412 36.3115 8.99207 36.6099 9.61312C36.9083 10.2342 36.9886 10.9688 36.8337 11.6591ZM52.1538 32.1818L42.9231 40.3636C42.4334 40.7976 41.818 40.984 41.2121 40.8817C40.6062 40.7794 40.0595 40.3968 39.6923 39.8182C39.3251 39.2395 39.1674 38.5122 39.254 37.7961C39.3405 37.0801 39.6642 36.434 40.1538 36L46.924 30L40.1538 24C39.9114 23.7851 39.7072 23.5159 39.5528 23.2077C39.3983 22.8995 39.2968 22.5584 39.254 22.2039C39.2111 21.8493 39.2278 21.4883 39.303 21.1413C39.3782 20.7944 39.5105 20.4683 39.6923 20.1818C39.8741 19.8953 40.1019 19.6539 40.3627 19.4714C40.6235 19.289 40.9121 19.169 41.2121 19.1183C41.5121 19.0677 41.8176 19.0873 42.1112 19.1762C42.4048 19.2651 42.6806 19.4215 42.9231 19.6364L52.1538 27.8182C52.4405 28.0722 52.6731 28.4016 52.8333 28.7803C52.9935 29.159 53.0769 29.5766 53.0769 30C53.0769 30.4234 52.9935 30.841 52.8333 31.2197C52.6731 31.5984 52.4405 31.9278 52.1538 32.1818Z" fill="black"/>
</svg>
